#!OML:ASF E:\emotionWalksFemale\Project 1\Capture day 1\Session 1\Female1.ASF
:FULLY-SPECIFIED
:DEGREES
221
root 9.04849 12.1892 21.895 -130.996 -6.47239 -180.11
lowerback 40.4377 1.41889 1.70082
upperback 2.39701 1.62686 0.567075
thorax -17.1577 0.157213 -0.923608
lowerneck -11.5488 -3.18021 -5.42906
upperneck -23.9586 -5.72753 8.28084
head -5.01054 -4.41917 3.73325
rclavicle 1.59028e-014 1.17283e-014
rhumerus -58.6041 33.767 -70.577
rradius 78.7738
rwrist 0.0835828
rhand -14.8413 -42.1305
rfingers 7.12502
rthumb 11.3178 -71.8051
lclavicle 1.59028e-014 1.17283e-014
lhumerus -72.8184 -11.2486 82.5606
lradius 62.0242
lwrist 7.50961
lhand -19.846 -62.1127
lfingers 7.12502
lthumb 6.48852 -32.2321
rfemur -94.0572 -1.93839 33.8369
rtibia 95.0711
rfoot -34.4865 -19.2126
rtoes -9.66718
lfemur -97.5524 2.09125 -28.3025
ltibia 92.6821
lfoot -36.6401 0.291574
ltoes -27.4031
222
root 9.06274 12.2182 21.8193 -131.389 -6.33408 -179.858
lowerback 40.8382 1.48792 1.85475
upperback 2.47578 1.72902 0.432922
thorax -17.1919 0.16994 -1.20285
lowerneck -10.9745 -3.27745 -5.41689
upperneck -24.4023 -5.84234 8.463
head -5.22355 -4.50519 3.82625
rclavicle 1.90833e-014 1.94809e-014
rhumerus -57.1197 31.3948 -71.3865
rradius 76.9485
rwrist 0.735767
rhand -14.8447 -42.4858
rfingers 7.12502
rthumb 11.3146 -72.1606
lclavicle 1.90833e-014 1.94809e-014
lhumerus -70.4642 -10.7066 83.0124
lradius 61.3925
lwrist 7.56242
lhand -20.1583 -62.3858
lfingers 7.12502
lthumb 6.18702 -32.4961
rfemur -92.8542 -1.61291 33.6652
rtibia 94.5974
rfoot -34.879 -19.0677
rtoes -9.6173
lfemur -96.9452 2.45659 -28.1239
ltibia 92.9971
lfoot -36.0735 0.131576
ltoes -25.9135
223
root 9.07418 12.2403 21.747 -131.621 -6.19671 -179.632
lowerback 41.0087 1.571 1.91876
upperback 2.4173 1.86829 0.435808
thorax -17.3186 0.219336 -1.30297
lowerneck -11.1839 -3.47247 -5.776
upperneck -24.1037 -6.03594 8.63431
head -5.06476 -4.55908 3.91716
rclavicle -3.97569e-015 2.96189e-014
rhumerus -55.6309 29.2338 -72.0486
rradius 74.9667
rwrist 1.55461
rhand -14.5515 -42.8444
rfingers 7.12502
rthumb 11.5973 -72.5035
lclavicle -3.97569e-015 2.96189e-014
lhumerus -68.1782 -10.0967 83.7036
lradius 60.5605
lwrist 7.93311
lhand -19.9474 -62.8394
lfingers 7.12502
lthumb 6.39062 -32.9558
rfemur -91.8958 -1.23319 33.4559
rtibia 94.1611
rfoot -35.2111 -18.938
rtoes -9.0373
lfemur -96.5816 2.71011 -27.9956
ltibia 93.3808
lfoot -35.6556 0.362718
ltoes -26.9435
224
root 9.08529 12.27 21.6741 -131.68 -6.18813 -179.409
lowerback 40.7862 1.61638 1.98886
upperback 2.35075 1.9816 0.468493
thorax -17.3164 0.269454 -1.35925
lowerneck -10.8018 -3.50885 -5.90056
upperneck -24.1448 -6.05412 8.64835
head -5.12987 -4.54436 3.95466
rclavicle -2.22639e-014 -5.96354e-015
rhumerus -54.5587 27.9027 -72.5518
rradius 73.5634
rwrist 1.62723
rhand -14.5494 -43.3986
rfingers 7.12502
rthumb 11.5993 -73.0575
lclavicle -2.22639e-014 -5.96354e-015
lhumerus -65.9514 -9.67108 84.312
lradius 59.9487
lwrist 9.19728
lhand -19.3695 -63.0891
lfingers 7.12502
lthumb 6.94843 -33.2232
rfemur -91.1078 -0.955705 33.4499
rtibia 93.6885
rfoot -35.3804 -18.7805
rtoes -8.34587
lfemur -96.4544 2.88224 -27.8224
ltibia 93.7226
lfoot -35.1022 0.862688
ltoes -27.4625
225
root 9.09659 12.3034 21.5977 -131.818 -6.20399 -179.288
lowerback 40.6858 1.68109 2.13127
upperback 2.34522 2.13848 0.512259
thorax -17.2778 0.327399 -1.46067
lowerneck -10.4858 -3.60161 -6.29927
upperneck -24.2911 -6.12284 8.82281
head -5.20018 -4.55266 4.09274
rclavicle -1.51076e-014 5.96354e-016
rhumerus -52.7648 25.658 -73.1993
rradius 71.2414
rwrist 2.51302
rhand -14.7135 -44.0212
rfingers 7.12502
rthumb 11.4411 -73.689
lclavicle -1.51076e-014 5.96354e-016
lhumerus -63.2685 -9.73207 85.0102
lradius 59.0764
lwrist 10.4223
lhand -19.5537 -62.9909
lfingers 7.12502
lthumb 6.7707 -33.1191
rfemur -90.2198 -0.834052 33.4778
rtibia 93.2083
rfoot -35.458 -18.8713
rtoes -8.11405
lfemur -96.1532 2.98451 -27.7407
ltibia 93.9773
lfoot -34.3239 1.26132
ltoes -26.7075
226
root 9.10519 12.3344 21.5183 -132.263 -6.12048 -179.24
lowerback 41.0326 1.75639 2.09579
upperback 2.38207 2.2003 0.526048
thorax -17.3564 0.343357 -1.45687
lowerneck -10.2387 -3.61377 -6.47446
upperneck -24.4995 -6.12652 8.92488
head -5.29479 -4.5554 4.17326
rclavicle -2.54444e-014 -1.63003e-014
rhumerus -51.1855 24.498 -73.5225
rradius 69.6019
rwrist 2.4542
rhand -14.894 -44.8159
rfingers 7.12502
rthumb 11.267 -74.4933
lclavicle -2.54444e-014 -1.63003e-014
lhumerus -59.9624 -9.55348 85.5056
lradius 57.6602
lwrist 11.1051
lhand -19.9605 -62.5561
lfingers 7.12502
lthumb 6.37797 -32.6721
rfemur -89 -0.754588 33.3555
rtibia 92.7302
rfoot -35.5219 -19.2359
rtoes -8.25132
lfemur -95.4081 3.06713 -27.76
ltibia 94.2036
lfoot -33.7217 1.95592
ltoes -28.424
